PathFileType	4	(X/Y/Z)	C:/Users/opensim2020/Desktop/walking_exp_matlab/subject03_walking15_straight_02.trc																																																																																																																																											
DataRate	CameraRate	NumFrames	NumMarkers	Units	OrigDataRate	OrigDataStartFrame	OrigNumFrames																																																																																																																																							
100	100	4	47	mm	100	1103	149																																																																																																																																							
Frame#	Time	LFHD			RFHD			LBHD			RBHD			C7			T10			CLAV			STRN			RBAK			LSHO			LUPA			LELB			LFRM			LWRA			LWRB			LFIN			RSHO			RUPA			RELB			RFRM			RWRA			RWRB			RFIN			LASI			RASI			LPSI			RPSI			LTHI			LKNE			LTIB			LANK			LHEE			LTOE			RTHI			RKNE			RTIB			RANK			RHEE			RTOE			*39			*40			*41			*42			*43			*44			*45			*46		
		X1	Y1	Z1	X2	Y2	Z2	X3	Y3	Z3	X4	Y4	Z4	X5	Y5	Z5	X6	Y6	Z6	X7	Y7	Z7	X8	Y8	Z8	X9	Y9	Z9	X10	Y10	Z10	X11	Y11	Z11	X12	Y12	Z12	X13	Y13	Z13	X14	Y14	Z14	X15	Y15	Z15	X16	Y16	Z16	X17	Y17	Z17	X18	Y18	Z18	X19	Y19	Z19	X20	Y20	Z20	X21	Y21	Z21	X22	Y22	Z22	X23	Y23	Z23	X24	Y24	Z24	X25	Y25	Z25	X26	Y26	Z26	X27	Y27	Z27	X28	Y28	Z28	X29	Y29	Z29	X30	Y30	Z30	X31	Y31	Z31	X32	Y32	Z32	X33	Y33	Z33	X34	Y34	Z34	X35	Y35	Z35	X36	Y36	Z36	X37	Y37	Z37	X38	Y38	Z38	X39	Y39	Z39	X40	Y40	Z40	X41	Y41	Z41	X42	Y42	Z42	X43	Y43	Z43	X44	Y44	Z44	X45	Y45	Z45	X46	Y46	Z46	X47	Y47	Z47
																																																																																																																																														
19	0.18	-775.79791	1610.39441	934.93524	-780.31708	1622.85156	1067.04968	-904.86292	1568.87122	937.55042	-903.93195	1580.33423	1068.08362	-935.92725	1412.61987	1008.12726	-981.94208	1103.30676	1015.3775	-815.68976	1334.05249	1005.11975	-777.72961	1166.67847	999.94812	-984.95648	1240.72363	1111.84998	-868.55249	1372.30225	850.42688	-899.60925	1176.31824	781.27997	-903.4278	1052.85449	769.41803	-879.87628	924.87842	768.30383	-856.76733	808.46191	797.54669	-886.94421	811.88269	750.81049	-867.80109	730.76862	757.02142	-853.38037	1362.20032	1164.99634	-836.35663	1146.26794	1250.74463	-809.96124	1037.98254	1268.25562	-769.78522	907.35791	1270.38953	-725.41064	818.82379	1233.79175	-752.38519	809.23157	1279.23547	-714.87689	745.63776	1270.45508	-826.70752	934.07782	896.9079	-820.93915	935.56805	1131.73267	-988.49866	955.10022	946.8374	-981.61548	972.20856	1095.74536	-798.23676	643.52704	845.1947	-725.32623	480.18417	873.96008	-795.21002	292.74911	887.59058	-845.36407	93.38647	939.22156	-888.41797	65.01608	984.3548	-709.22949	39.90878	949.64166	-904.15961	644.56396	1178.61072	-915.31238	465.2648	1145.17468	-984.25751	285.28784	1156.9906	-1042.82983	74.27588	1114.97705	-1091.67798	44.25476	1068.07202	-904.33057	30.90395	1095.35266	-859.4397	1675.88123	976.59106	NaN	NaN	NaN	NaN	NaN	NaN	NaN	NaN	NaN	NaN	NaN	NaN	NaN	NaN	NaN	NaN	NaN	NaN	NaN	NaN	NaN
20	0.19	-762.16736	1608.67957	934.45251	-766.41656	1621.31396	1066.48108	-891.14807	1566.88977	937.43378	-889.98846	1578.65588	1067.94348	-922.04889	1410.99536	1008.2182	-968.69891	1101.6875	1015.54279	-801.81281	1332.33826	1005.16998	-764.34528	1164.70276	1000.2384	-971.00323	1239.28076	1112.38049	-854.8205	1370.18433	850.40277	-887.87189	1174.32349	781.46002	-893.47717	1051.05322	769.01477	-874.09259	922.24249	766.492	-855.36639	804.203	794.88098	-885.10077	809.78284	747.85858	-868.76556	728.0766	752.82355	-839.27069	1360.83862	1165.08691	-820.32031	1145.56104	1251.40356	-792.51746	1037.78772	1269.24719	-749.02869	908.22614	1270.81812	-702.16876	821.29742	1233.79578	-729.18781	810.53534	1278.85095	-689.58337	748.42072	1270.1875	-812.41846	932.5354	896.86206	-809.14642	933.73499	1132.25452	-975.17834	953.01935	946.43921	-968.89954	970.21368	1095.38354	-782.48169	643.16504	845.05347	-708.82001	480.43283	874.39709	-766.79443	288.88135	886.89929	-802.68878	85.67178	938.17737	-843.41022	54.2698	982.59552	-663.28271	40.51665	948.4057	-894.7077	643.40039	1178.49731	-908.28674	464.14569	1145.12195	-979.72809	285.20102	1157.05017	-1042.13818	75.0621	1114.56018	-1091.52014	45.7606	1067.44714	-904.13947	30.89148	1095.34802	-845.71729	1673.93347	976.66095	NaN	NaN	NaN	NaN	NaN	NaN	NaN	NaN	NaN	NaN	NaN	NaN	NaN	NaN	NaN	NaN	NaN	NaN	NaN	NaN	NaN
21	0.2	-748.56506	1606.85364	933.8028	-752.51074	1619.73694	1065.88184	-877.45245	1564.90332	937.24072	-876.02734	1576.90137	1067.73291	-908.04816	1409.22363	1008.24695	-955.47107	1100.03186	1015.42737	-787.89374	1330.4519	1005.18121	-750.96161	1162.66858	1000.39679	-957.13013	1237.78479	1112.74438	-841.05408	1368.00452	850.30817	-876.01349	1172.22644	781.53204	-883.52032	1049.12109	768.51782	-868.03705	919.76147	764.81799	-854.36768	800.66107	792.39197	-883.03088	807.90125	745.02002	-869.49298	725.68427	748.94885	-825.12506	1359.44543	1165.13074	-804.40991	1144.72253	1252.01453	-775.18347	1037.43152	1270.05981	-728.62042	909.03705	1271.04883	-679.3363	823.73737	1233.48792	-706.34082	811.83734	1278.29041	-664.77466	751.24176	1269.57019	-798.89478	930.8493	897.13806	-796.38434	931.76794	1132.55969	-961.66547	950.69336	945.88226	-956.21033	967.995	1094.91589	-767.1076	642.34717	844.78552	-693.02893	480.11313	874.93597	-738.98523	285.32401	886.18732	-760.4566	79.72921	936.25323	-799.66278	46.46184	980.23846	-618.28131	41.94924	947.08459	-885.12238	642.29352	1178.36902	-901.23999	463.1582	1145.11816	-975.97839	285.27325	1156.29871	-1041.53198	76.14137	1114.27722	-1091.32788	47.59079	1067.08276	-904.12585	30.74477	1095.11279	-830.85724	1674.15491	976.92334	NaN	NaN	NaN	NaN	NaN	NaN	NaN	NaN	NaN	NaN	NaN	NaN	NaN	NaN	NaN	NaN	NaN	NaN	NaN	NaN	NaN
22	0.21	-734.85583	1605.01257	933.13531	-738.53448	1618.09961	1065.19128	-863.65466	1562.828	936.97565	-861.96991	1575.08264	1067.42737	-894.01611	1407.53174	1008.23077	-942.1864	1098.38	1015.1311	-773.91718	1328.5863	1005.00189	-737.51941	1160.60803	1000.57098	-943.25079	1236.27197	1112.9574	-827.25262	1365.78845	850.1532	-864.03906	1170.16113	781.47919	-873.30023	1047.24609	768.01617	-861.77594	917.45959	763.1969	-852.00824	797.63202	789.52106	-880.53748	806.34418	742.39905	-869.8703	723.66632	745.37616	-810.83997	1357.85352	1165.14368	-788.6261	1143.74866	1252.56836	-758.06738	1036.99841	1270.70581	-708.49207	909.75885	1271.01733	-657.10046	826.15356	1232.95508	-683.8996	813.11401	1277.43921	-640.34723	754.11572	1268.69653	-784.71881	929.18286	897.24591	-783.60291	929.8244	1132.87793	-947.86328	948.31903	945.17206	-943.42487	965.55408	1094.27295	-752.24561	641.01715	844.60248	-677.75354	479.30881	875.63513	-712.07922	282.39288	885.56909	-719.18384	75.11407	934.17657	-755.94977	39.61561	977.92297	-574.46844	44.20277	945.65009	-875.61139	641.39026	1178.57727	-894.14929	462.25342	1145.08691	-972.05457	285.5434	1155.76147	-1040.97852	77.54266	1113.90295	-1091.01013	49.56173	1066.74548	-903.99493	30.70794	1095.09229	-817.32294	1672.4563	976.58453	NaN	NaN	NaN	NaN	NaN	NaN	NaN	NaN	NaN	NaN	NaN	NaN	NaN	NaN	NaN	NaN	NaN	NaN	NaN	NaN	NaN
